<?xml version="1.0" standalone="no"?><!DOCTYPE svg PUBLIC "-//W3C//DTD SVG 1.1//EN" "http://www.w3.org/Graphics/SVG/1.1/DTD/svg11.dtd"><svg t="1783040246546" class="icon" viewBox="0 0 1024 1024" version="1.1" xmlns="http://www.w3.org/2000/svg" p-id="6263" xmlns:xlink="http://www.w3.org/1999/xlink" width="1024" height="1024"><path d="M446 815q-30 43-77.5 65t-99 18-94.5-34-64.5-77.5-17-99.5 34.5-96q26-38 66.5-60.5T281 506l2 61q-30 2-56.5 17T182 625q-21 30-24.5 65.5T168 758t43 52.5 64 23 67-13 53-45.5q19-28 24-61v-44l238-1 3-5q17-29 49-38t61 7.5 37.5 49T799 744t-49.5 38-60.5-7q-27-15-36-44l-173 1q-8 45-34 83z m311-305q53 7 94.5 38t62.5 78.5 14.5 100T890 820t-80 61.5T709 895q-45-5-84-30t-62-64l53-31q16 26 42 42t57 20q36 5 69-9t54.5-41.5 26-62.5-10-67-43-53-64.5-25q-34-4-66 7l-36 19-110-203h-9q-34-1-57-25.5t-22-58 26-56 58.5-21T588 262t22 57q-1 28-19 49l81 150q40-13 85-8zM352 394q-21-49-14.5-101t37-93.5 79-62 100-13.5 93 38.5T709 243q19 43 16 88.5T701 417l-53-31q13-27 14.5-57T652 269q-15-33-43-54.5t-62.5-27T479 196t-53.5 42.5T401 302t11 69q17 41 56 64l17 9-131 213v1q3 4 4 7 16 30 6 61.5T325 774t-61 6-48-40-6.5-62 39.5-48q25-13 52-7l99-161q-33-30-48-68z" p-id="6264"></path></svg>